:SAMPLES-PER-SECOND 30
:FULLY-SPECIFIED
:DEGREES
282
root  -33.9248 32.1847 44.3503 6.57939 45.5465 -0.694519
RightUpLeg  5.97057 -26.178 -8.67627
RightLeg  15.3749 -12.3189 -2.52385
RightFoot  -4.20712 0.0247268 1.05091
RightToes  -43.7846 -0.2494 -0.335487
Spine  8.03385 3.58603 0.679792
Spine1  15.096 8.57368 -0.274683
HEad  -12.6319 52.3674 -29.199
LeftShoulder1  0 -2.42657e-020 -4.95415e-022
LeftArm  -31.8459 -3.16961 -86.0657
LeftForeArm  52.2814 -20.1229 -3.66839
LeftHand  0.0277145 -8.69562 -0.735054
RightShoulder  0 2.42657e-020 1.07489e-018
RightArm  -40.531 5.50145 48.7451
RightForeArm  33.0128 31.6521 6.2342
RightHand  -1.97787 24.4179 -8.75485
LeftUpLeg  -36.2767 19.7409 -15.0389
LeftLeg  30.0735 12.4692 6.11182
LeftFoot  -2.9879 -0.018458 -0.707739
LeftToes  9.83076 1.28829e-006 1.15665e-007
283
root  -33.0586 32.0629 45.1967 6.64941 48.3998 0.616653
RightUpLeg  6.87444 -24.3812 -9.59815
RightLeg  20.7412 -16.0216 -4.83567
RightFoot  -3.73553 0.0277985 1.23021
RightToes  -46.205 -0.269851 -0.347424
Spine  7.99651 3.31432 -0.234648
Spine1  14.9781 7.71789 -1.31163
HEad  -12.7483 51.7349 -28.5448
LeftShoulder1  0 -2.42657e-020 -4.95415e-022
LeftArm  -34.157 -3.38379 -85.5663
LeftForeArm  51.4655 -18.8618 -3.41967
LeftHand  0.0214068 -7.7788 -0.685422
RightShoulder  0 2.42657e-020 1.07489e-018
RightArm  -42.7981 3.29576 50.5593
RightForeArm  31.9658 31.4095 6.17556
RightHand  -1.93277 22.1805 -9.46967
LeftUpLeg  -34.7654 19.1376 -15.1747
LeftLeg  33.0337 9.93251 5.53634
LeftFoot  -5.33602 -0.0485233 -1.04127
LeftToes  11.7952 1.28829e-006 1.15665e-007
284
root  -32.0835 32.0392 45.9706 5.47958 51.5991 0.271072
RightUpLeg  5.2434 -21.5676 -8.64786
RightLeg  30.563 -19.162 -9.44339
RightFoot  0.231215 0.000735627 0.0129306
RightToes  -50.1156 -0.303903 -0.364854
Spine  7.80971 3.04224 -0.363028
Spine1  14.666 6.98592 -1.26346
HEad  -10.5198 53.0872 -27.7363
LeftShoulder1  0 -2.42657e-020 -4.95415e-022
LeftArm  -37.4182 -2.8679 -86.4511
LeftForeArm  51.2488 -17.6093 -3.17542
LeftHand  0.0375581 -7.25023 -0.963682
RightShoulder  0 2.42657e-020 1.07489e-018
RightArm  -45.5324 0.387233 52.4736
RightForeArm  34.2808 29.7731 5.78125
RightHand  -1.88177 22.0853 -9.25334
LeftUpLeg  -32.3501 21.2485 -14.9276
LeftLeg  34.0575 5.93118 3.46168
LeftFoot  -8.20817 -0.0698193 -0.973042
LeftToes  13.0317 1.28829e-006 1.15665e-007
285
root  -31.2434 32.161 46.5977 5.32217 57.5134 0.384918
RightUpLeg  1.5623 -20.6071 -7.04967
RightLeg  42.632 -19.9738 -15.4413
RightFoot  6.16253 0.171254 -2.8027
RightToes  -44.3863 -0.254436 -0.338535
Spine  7.46513 1.82106 -0.348668
Spine1  14.1187 4.2773 -0.966509
HEad  -8.31853 54.3012 -27.3808
LeftShoulder1  0 -2.42657e-020 -4.95415e-022
LeftArm  -40.2159 -1.62789 -87.5603
LeftForeArm  51.415 -17.4228 -3.139
LeftHand  0.0426596 -7.22695 -1.04646
RightShoulder  0 2.42657e-020 1.07489e-018
RightArm  -46.1691 -2.43544 54.5621
RightForeArm  35.0946 27.9513 5.35885
RightHand  -1.82967 20.8813 -9.53835
LeftUpLeg  -29.2536 16.8219 -13.9761
LeftLeg  33.4829 4.9783 2.84108
LeftFoot  -8.77172 -0.0661616 -0.862622
LeftToes  12.6092 1.28829e-006 1.15665e-007
286
root  -30.414 32.4085 47.1779 5.52715 63.381 0.898666
RightUpLeg  -3.17492 -18.6548 -5.39357
RightLeg  53.0803 -16.0905 -17.9477
RightFoot  13.8541 0.791001 -6.12596
RightToes  -30.0934 -0.144564 -0.252614
Spine  7.15198 0.907812 -0.505724
Spine1  13.6938 2.0714 -0.735844
HEad  -6.72457 53.8235 -26.6721
LeftShoulder1  0 -2.42657e-020 -4.95415e-022
LeftArm  -39.9197 -0.378531 -88.5586
LeftForeArm  51.4848 -17.5528 -3.16403
LeftHand  0.0230836 -7.43249 -0.726022
RightShoulder  0 2.42657e-020 1.07489e-018
RightArm  -50.1094 -6.57618 57.9075
RightForeArm  39.0226 26.2752 4.97971
RightHand  -1.93161 24.1315 -8.65089
LeftUpLeg  -25.5832 12.1731 -13.2124
LeftLeg  31.4609 4.25617 2.23492
LeftFoot  -8.35298 -0.0491964 -0.673713
LeftToes  11.8524 1.28829e-006 1.15665e-007
287
root  -29.6729 32.6881 47.774 5.8636 68.6341 1.28523
RightUpLeg  -8.48005 -15.8323 -3.79743
RightLeg  59.6976 -6.25475 -9.25873
RightFoot  18.2552 0.645822 -3.6403
RightToes  -33.7051 -0.170249 -0.276875
Spine  6.89689 0.506154 -0.613787
Spine1  13.2981 1.05079 -0.668471
HEad  -4.89289 52.2104 -24.9017
LeftShoulder1  0 -2.42657e-020 -4.95415e-022
LeftArm  -37.9213 0.747818 -89.1801
LeftForeArm  51.7094 -17.8945 -3.22997
LeftHand  0.0366984 -7.89237 -0.90273
RightShoulder  0 2.42657e-020 1.07489e-018
RightArm  -51.4299 -11.8119 61.6932
RightForeArm  41.5449 26.7557 5.08297
RightHand  -1.53791 22.7466 -7.26669
LeftUpLeg  -22.18 8.21792 -12.329
LeftLeg  28.9075 3.26192 1.53199
LeftFoot  -7.56887 -0.0292492 -0.44219
LeftToes  10.1926 1.28829e-006 1.15665e-007
